<mxfile host="app.diagrams.net" agent="Mozilla/5.0 (Windows NT 10.0; Win64; x64) AppleWebKit/537.36 (KHTML, like Gecko) Chrome/136.0.0.0 Safari/537.36" version="27.0.6">
  <diagram name="Page-1" id="matjamMThFDhKfSJXGRj">
    <mxGraphModel grid="1" page="1" gridSize="10" guides="1" tooltips="1" connect="1" arrows="1" fold="1" pageScale="1" pageWidth="3000" pageHeight="3000" math="0" shadow="0">
      <root>
        <mxCell id="0" />
        <mxCell id="1" parent="0" />
        <mxCell id="jdOtixr_iRrgB9LfcCDT-1" value="sarana" style="whiteSpace=wrap;html=1;align=center;" vertex="1" parent="1">
          <mxGeometry x="890" y="540" width="100" height="40" as="geometry" />
        </mxCell>
        <mxCell id="jdOtixr_iRrgB9LfcCDT-2" value="nama_sarana" style="ellipse;whiteSpace=wrap;html=1;align=center;" vertex="1" parent="1">
          <mxGeometry x="620" y="540" width="100" height="40" as="geometry" />
        </mxCell>
        <mxCell id="jdOtixr_iRrgB9LfcCDT-3" value="sarana_id" style="ellipse;whiteSpace=wrap;html=1;align=center;fontStyle=4;" vertex="1" parent="1">
          <mxGeometry x="740" y="460" width="100" height="40" as="geometry" />
        </mxCell>
        <mxCell id="jdOtixr_iRrgB9LfcCDT-4" value="jumlah_tersedia" style="ellipse;whiteSpace=wrap;html=1;align=center;" vertex="1" parent="1">
          <mxGeometry x="740" y="610" width="100" height="40" as="geometry" />
        </mxCell>
        <mxCell id="jdOtixr_iRrgB9LfcCDT-5" value="lokasi" style="ellipse;whiteSpace=wrap;html=1;align=center;" vertex="1" parent="1">
          <mxGeometry x="780" y="680" width="100" height="40" as="geometry" />
        </mxCell>
        <mxCell id="jdOtixr_iRrgB9LfcCDT-6" value="keterangan" style="ellipse;whiteSpace=wrap;html=1;align=center;" vertex="1" parent="1">
          <mxGeometry x="790" y="390" width="100" height="40" as="geometry" />
        </mxCell>
        <mxCell id="jdOtixr_iRrgB9LfcCDT-7" value="" style="endArrow=none;html=1;rounded=0;entryX=0.003;entryY=0.411;entryDx=0;entryDy=0;entryPerimeter=0;exitX=0.558;exitY=1.019;exitDx=0;exitDy=0;exitPerimeter=0;" edge="1" parent="1" source="jdOtixr_iRrgB9LfcCDT-6" target="jdOtixr_iRrgB9LfcCDT-1">
          <mxGeometry relative="1" as="geometry">
            <mxPoint x="900" y="430" as="sourcePoint" />
            <mxPoint x="1060" y="430" as="targetPoint" />
          </mxGeometry>
        </mxCell>
        <mxCell id="jdOtixr_iRrgB9LfcCDT-8" value="" style="endArrow=none;html=1;rounded=0;exitX=0.5;exitY=1;exitDx=0;exitDy=0;" edge="1" parent="1" source="jdOtixr_iRrgB9LfcCDT-3">
          <mxGeometry relative="1" as="geometry">
            <mxPoint x="920" y="490" as="sourcePoint" />
            <mxPoint x="890" y="560" as="targetPoint" />
          </mxGeometry>
        </mxCell>
        <mxCell id="jdOtixr_iRrgB9LfcCDT-9" value="" style="endArrow=none;html=1;rounded=0;exitX=1;exitY=0.5;exitDx=0;exitDy=0;" edge="1" parent="1" source="jdOtixr_iRrgB9LfcCDT-2">
          <mxGeometry relative="1" as="geometry">
            <mxPoint x="930" y="580" as="sourcePoint" />
            <mxPoint x="890" y="560" as="targetPoint" />
          </mxGeometry>
        </mxCell>
        <mxCell id="jdOtixr_iRrgB9LfcCDT-10" value="" style="endArrow=none;html=1;rounded=0;entryX=1;entryY=0.5;entryDx=0;entryDy=0;" edge="1" parent="1" target="jdOtixr_iRrgB9LfcCDT-4">
          <mxGeometry relative="1" as="geometry">
            <mxPoint x="890" y="560" as="sourcePoint" />
            <mxPoint x="890" y="710" as="targetPoint" />
          </mxGeometry>
        </mxCell>
        <mxCell id="jdOtixr_iRrgB9LfcCDT-11" value="" style="endArrow=none;html=1;rounded=0;" edge="1" parent="1" target="jdOtixr_iRrgB9LfcCDT-5">
          <mxGeometry relative="1" as="geometry">
            <mxPoint x="890" y="560" as="sourcePoint" />
            <mxPoint x="920" y="690" as="targetPoint" />
          </mxGeometry>
        </mxCell>
        <mxCell id="jdOtixr_iRrgB9LfcCDT-12" value="" style="endArrow=none;html=1;rounded=0;exitX=1;exitY=0.5;exitDx=0;exitDy=0;startArrow=ERmandOne;startFill=0;" edge="1" parent="1" source="jdOtixr_iRrgB9LfcCDT-1">
          <mxGeometry relative="1" as="geometry">
            <mxPoint x="1100" y="570" as="sourcePoint" />
            <mxPoint x="1130" y="560" as="targetPoint" />
          </mxGeometry>
        </mxCell>
        <mxCell id="jdOtixr_iRrgB9LfcCDT-13" value="pinjam" style="shape=rhombus;perimeter=rhombusPerimeter;whiteSpace=wrap;html=1;align=center;" vertex="1" parent="1">
          <mxGeometry x="1130" y="530" width="120" height="60" as="geometry" />
        </mxCell>
        <mxCell id="jdOtixr_iRrgB9LfcCDT-14" value="" style="endArrow=ERmandOne;html=1;rounded=0;exitX=1;exitY=0.5;exitDx=0;exitDy=0;endFill=0;" edge="1" parent="1">
          <mxGeometry relative="1" as="geometry">
            <mxPoint x="1250" y="559.7" as="sourcePoint" />
            <mxPoint x="1390" y="559.7" as="targetPoint" />
          </mxGeometry>
        </mxCell>
        <mxCell id="jdOtixr_iRrgB9LfcCDT-15" value="peminjaman" style="whiteSpace=wrap;html=1;align=center;" vertex="1" parent="1">
          <mxGeometry x="1390" y="540" width="100" height="40" as="geometry" />
        </mxCell>
        <mxCell id="jdOtixr_iRrgB9LfcCDT-16" value="" style="endArrow=none;html=1;rounded=0;exitX=1;exitY=0.5;exitDx=0;exitDy=0;startArrow=ERoneToMany;startFill=0;" edge="1" parent="1">
          <mxGeometry relative="1" as="geometry">
            <mxPoint x="1490" y="559.7" as="sourcePoint" />
            <mxPoint x="1630" y="559.7" as="targetPoint" />
          </mxGeometry>
        </mxCell>
        <mxCell id="jdOtixr_iRrgB9LfcCDT-17" value="" style="endArrow=ERmandOne;html=1;rounded=0;exitX=1;exitY=0.5;exitDx=0;exitDy=0;endFill=0;" edge="1" parent="1">
          <mxGeometry relative="1" as="geometry">
            <mxPoint x="1750" y="559.7" as="sourcePoint" />
            <mxPoint x="1890" y="559.7" as="targetPoint" />
          </mxGeometry>
        </mxCell>
        <mxCell id="jdOtixr_iRrgB9LfcCDT-18" value="pinjam" style="shape=rhombus;perimeter=rhombusPerimeter;whiteSpace=wrap;html=1;align=center;" vertex="1" parent="1">
          <mxGeometry x="1630" y="530" width="120" height="60" as="geometry" />
        </mxCell>
        <mxCell id="jdOtixr_iRrgB9LfcCDT-19" value="users" style="whiteSpace=wrap;html=1;align=center;" vertex="1" parent="1">
          <mxGeometry x="1890" y="540" width="100" height="40" as="geometry" />
        </mxCell>
        <mxCell id="jdOtixr_iRrgB9LfcCDT-20" value="sarana_id" style="ellipse;whiteSpace=wrap;html=1;align=center;fontStyle=4;" vertex="1" parent="1">
          <mxGeometry x="1140" y="450" width="100" height="40" as="geometry" />
        </mxCell>
        <mxCell id="jdOtixr_iRrgB9LfcCDT-21" value="" style="endArrow=none;html=1;rounded=0;entryX=0.5;entryY=0;entryDx=0;entryDy=0;exitX=0.5;exitY=1;exitDx=0;exitDy=0;" edge="1" parent="1" source="jdOtixr_iRrgB9LfcCDT-20" target="jdOtixr_iRrgB9LfcCDT-13">
          <mxGeometry relative="1" as="geometry">
            <mxPoint x="870" y="490" as="sourcePoint" />
            <mxPoint x="914" y="615" as="targetPoint" />
          </mxGeometry>
        </mxCell>
        <mxCell id="jdOtixr_iRrgB9LfcCDT-22" value="user_id" style="ellipse;whiteSpace=wrap;html=1;align=center;fontStyle=4;" vertex="1" parent="1">
          <mxGeometry x="1640" y="450" width="100" height="40" as="geometry" />
        </mxCell>
        <mxCell id="jdOtixr_iRrgB9LfcCDT-23" value="" style="endArrow=none;html=1;rounded=0;entryX=0.5;entryY=0;entryDx=0;entryDy=0;exitX=0.5;exitY=1;exitDx=0;exitDy=0;" edge="1" parent="1" source="jdOtixr_iRrgB9LfcCDT-22">
          <mxGeometry relative="1" as="geometry">
            <mxPoint x="1370" y="490" as="sourcePoint" />
            <mxPoint x="1690" y="530" as="targetPoint" />
          </mxGeometry>
        </mxCell>
        <mxCell id="jdOtixr_iRrgB9LfcCDT-24" value="user_id" style="ellipse;whiteSpace=wrap;html=1;align=center;fontStyle=4;" vertex="1" parent="1">
          <mxGeometry x="2070" y="540" width="100" height="40" as="geometry" />
        </mxCell>
        <mxCell id="jdOtixr_iRrgB9LfcCDT-25" value="username" style="ellipse;whiteSpace=wrap;html=1;align=center;" vertex="1" parent="1">
          <mxGeometry x="1990" y="640" width="100" height="40" as="geometry" />
        </mxCell>
        <mxCell id="jdOtixr_iRrgB9LfcCDT-26" value="id_card" style="ellipse;whiteSpace=wrap;html=1;align=center;" vertex="1" parent="1">
          <mxGeometry x="1990" y="440" width="100" height="40" as="geometry" />
        </mxCell>
        <mxCell id="jdOtixr_iRrgB9LfcCDT-27" value="role" style="ellipse;whiteSpace=wrap;html=1;align=center;" vertex="1" parent="1">
          <mxGeometry x="2180" y="480" width="100" height="40" as="geometry" />
        </mxCell>
        <mxCell id="jdOtixr_iRrgB9LfcCDT-28" value="nama_lengkap" style="ellipse;whiteSpace=wrap;html=1;align=center;" vertex="1" parent="1">
          <mxGeometry x="2180" y="600" width="100" height="40" as="geometry" />
        </mxCell>
        <mxCell id="jdOtixr_iRrgB9LfcCDT-29" value="jenis_pengguna" style="ellipse;whiteSpace=wrap;html=1;align=center;" vertex="1" parent="1">
          <mxGeometry x="2180" y="680" width="100" height="40" as="geometry" />
        </mxCell>
        <mxCell id="jdOtixr_iRrgB9LfcCDT-30" value="password" style="ellipse;whiteSpace=wrap;html=1;align=center;" vertex="1" parent="1">
          <mxGeometry x="2180" y="380" width="100" height="40" as="geometry" />
        </mxCell>
        <mxCell id="jdOtixr_iRrgB9LfcCDT-31" value="" style="endArrow=none;html=1;rounded=0;exitX=1;exitY=0.5;exitDx=0;exitDy=0;entryX=0.273;entryY=0.995;entryDx=0;entryDy=0;entryPerimeter=0;" edge="1" parent="1" source="jdOtixr_iRrgB9LfcCDT-19" target="jdOtixr_iRrgB9LfcCDT-26">
          <mxGeometry relative="1" as="geometry">
            <mxPoint x="1830" y="550" as="sourcePoint" />
            <mxPoint x="1970" y="550" as="targetPoint" />
          </mxGeometry>
        </mxCell>
        <mxCell id="jdOtixr_iRrgB9LfcCDT-32" value="" style="endArrow=none;html=1;rounded=0;exitX=1;exitY=0.5;exitDx=0;exitDy=0;entryX=0;entryY=0.5;entryDx=0;entryDy=0;" edge="1" parent="1" source="jdOtixr_iRrgB9LfcCDT-19" target="jdOtixr_iRrgB9LfcCDT-24">
          <mxGeometry relative="1" as="geometry">
            <mxPoint x="2020" y="630" as="sourcePoint" />
            <mxPoint x="2047" y="550" as="targetPoint" />
          </mxGeometry>
        </mxCell>
        <mxCell id="jdOtixr_iRrgB9LfcCDT-33" value="" style="endArrow=none;html=1;rounded=0;exitX=0.312;exitY=0.131;exitDx=0;exitDy=0;entryX=1;entryY=0.5;entryDx=0;entryDy=0;exitPerimeter=0;" edge="1" parent="1" source="jdOtixr_iRrgB9LfcCDT-25" target="jdOtixr_iRrgB9LfcCDT-19">
          <mxGeometry relative="1" as="geometry">
            <mxPoint x="2020" y="680" as="sourcePoint" />
            <mxPoint x="2047" y="600" as="targetPoint" />
          </mxGeometry>
        </mxCell>
        <mxCell id="jdOtixr_iRrgB9LfcCDT-34" value="" style="endArrow=none;html=1;rounded=0;exitX=1;exitY=0.5;exitDx=0;exitDy=0;entryX=0.106;entryY=0.816;entryDx=0;entryDy=0;entryPerimeter=0;" edge="1" parent="1" source="jdOtixr_iRrgB9LfcCDT-19" target="jdOtixr_iRrgB9LfcCDT-30">
          <mxGeometry relative="1" as="geometry">
            <mxPoint x="2110" y="520" as="sourcePoint" />
            <mxPoint x="2137" y="440" as="targetPoint" />
          </mxGeometry>
        </mxCell>
        <mxCell id="jdOtixr_iRrgB9LfcCDT-35" value="" style="endArrow=none;html=1;rounded=0;entryX=0;entryY=0.5;entryDx=0;entryDy=0;" edge="1" parent="1" target="jdOtixr_iRrgB9LfcCDT-27">
          <mxGeometry relative="1" as="geometry">
            <mxPoint x="1990" y="560" as="sourcePoint" />
            <mxPoint x="2137" y="500" as="targetPoint" />
          </mxGeometry>
        </mxCell>
        <mxCell id="jdOtixr_iRrgB9LfcCDT-36" value="" style="endArrow=none;html=1;rounded=0;exitX=1;exitY=0.5;exitDx=0;exitDy=0;entryX=0;entryY=0.5;entryDx=0;entryDy=0;" edge="1" parent="1" source="jdOtixr_iRrgB9LfcCDT-19" target="jdOtixr_iRrgB9LfcCDT-28">
          <mxGeometry relative="1" as="geometry">
            <mxPoint x="2170" y="690" as="sourcePoint" />
            <mxPoint x="2197" y="610" as="targetPoint" />
          </mxGeometry>
        </mxCell>
        <mxCell id="jdOtixr_iRrgB9LfcCDT-37" value="" style="endArrow=none;html=1;rounded=0;exitX=1;exitY=0.5;exitDx=0;exitDy=0;entryX=0.091;entryY=0.267;entryDx=0;entryDy=0;entryPerimeter=0;" edge="1" parent="1" source="jdOtixr_iRrgB9LfcCDT-19" target="jdOtixr_iRrgB9LfcCDT-29">
          <mxGeometry relative="1" as="geometry">
            <mxPoint x="2130" y="730" as="sourcePoint" />
            <mxPoint x="2157" y="650" as="targetPoint" />
          </mxGeometry>
        </mxCell>
        <mxCell id="jdOtixr_iRrgB9LfcCDT-38" value="peminjaman_id" style="ellipse;whiteSpace=wrap;html=1;align=center;fontStyle=4;" vertex="1" parent="1">
          <mxGeometry x="1510" y="610" width="100" height="40" as="geometry" />
        </mxCell>
        <mxCell id="jdOtixr_iRrgB9LfcCDT-39" value="user_id" style="ellipse;whiteSpace=wrap;html=1;align=center;fontStyle=4;" vertex="1" parent="1">
          <mxGeometry x="1270" y="680" width="100" height="40" as="geometry" />
        </mxCell>
        <mxCell id="jdOtixr_iRrgB9LfcCDT-40" value="sarana_id" style="ellipse;whiteSpace=wrap;html=1;align=center;fontStyle=4;" vertex="1" parent="1">
          <mxGeometry x="1270" y="610" width="100" height="40" as="geometry" />
        </mxCell>
        <mxCell id="jdOtixr_iRrgB9LfcCDT-41" value="tanggal_pinjam" style="ellipse;whiteSpace=wrap;html=1;align=center;" vertex="1" parent="1">
          <mxGeometry x="1510" y="680" width="100" height="40" as="geometry" />
        </mxCell>
        <mxCell id="jdOtixr_iRrgB9LfcCDT-42" value="tanggal_kembali" style="ellipse;whiteSpace=wrap;html=1;align=center;" vertex="1" parent="1">
          <mxGeometry x="1510" y="750" width="100" height="40" as="geometry" />
        </mxCell>
        <mxCell id="jdOtixr_iRrgB9LfcCDT-43" value="status" style="ellipse;whiteSpace=wrap;html=1;align=center;" vertex="1" parent="1">
          <mxGeometry x="1270" y="750" width="100" height="40" as="geometry" />
        </mxCell>
        <mxCell id="jdOtixr_iRrgB9LfcCDT-44" value="jumlah_pinjam" style="ellipse;whiteSpace=wrap;html=1;align=center;" vertex="1" parent="1">
          <mxGeometry x="1510" y="830" width="100" height="40" as="geometry" />
        </mxCell>
        <mxCell id="jdOtixr_iRrgB9LfcCDT-45" value="catatan_admin" style="ellipse;whiteSpace=wrap;html=1;align=center;" vertex="1" parent="1">
          <mxGeometry x="1270" y="830" width="100" height="40" as="geometry" />
        </mxCell>
        <mxCell id="jdOtixr_iRrgB9LfcCDT-46" value="" style="endArrow=none;html=1;rounded=0;exitX=0.5;exitY=1;exitDx=0;exitDy=0;entryX=1;entryY=0.5;entryDx=0;entryDy=0;" edge="1" parent="1" source="jdOtixr_iRrgB9LfcCDT-15" target="jdOtixr_iRrgB9LfcCDT-40">
          <mxGeometry relative="1" as="geometry">
            <mxPoint x="1400" y="620" as="sourcePoint" />
            <mxPoint x="1540" y="620" as="targetPoint" />
          </mxGeometry>
        </mxCell>
        <mxCell id="jdOtixr_iRrgB9LfcCDT-47" value="" style="endArrow=none;html=1;rounded=0;exitX=0;exitY=0.5;exitDx=0;exitDy=0;entryX=0.5;entryY=1;entryDx=0;entryDy=0;" edge="1" parent="1" source="jdOtixr_iRrgB9LfcCDT-38" target="jdOtixr_iRrgB9LfcCDT-15">
          <mxGeometry relative="1" as="geometry">
            <mxPoint x="1545" y="610" as="sourcePoint" />
            <mxPoint x="1470" y="590" as="targetPoint" />
          </mxGeometry>
        </mxCell>
        <mxCell id="jdOtixr_iRrgB9LfcCDT-48" value="" style="endArrow=none;html=1;rounded=0;exitX=0.5;exitY=1;exitDx=0;exitDy=0;entryX=1;entryY=0.5;entryDx=0;entryDy=0;" edge="1" parent="1" source="jdOtixr_iRrgB9LfcCDT-15" target="jdOtixr_iRrgB9LfcCDT-39">
          <mxGeometry relative="1" as="geometry">
            <mxPoint x="1455" y="670" as="sourcePoint" />
            <mxPoint x="1390" y="721" as="targetPoint" />
          </mxGeometry>
        </mxCell>
        <mxCell id="jdOtixr_iRrgB9LfcCDT-49" value="" style="endArrow=none;html=1;rounded=0;entryX=0;entryY=0.5;entryDx=0;entryDy=0;exitX=0.5;exitY=1;exitDx=0;exitDy=0;" edge="1" parent="1" source="jdOtixr_iRrgB9LfcCDT-15" target="jdOtixr_iRrgB9LfcCDT-41">
          <mxGeometry relative="1" as="geometry">
            <mxPoint x="1430" y="580" as="sourcePoint" />
            <mxPoint x="1470" y="721" as="targetPoint" />
          </mxGeometry>
        </mxCell>
        <mxCell id="jdOtixr_iRrgB9LfcCDT-50" value="" style="endArrow=none;html=1;rounded=0;exitX=0.5;exitY=1;exitDx=0;exitDy=0;entryX=1;entryY=0.5;entryDx=0;entryDy=0;" edge="1" parent="1" source="jdOtixr_iRrgB9LfcCDT-15" target="jdOtixr_iRrgB9LfcCDT-43">
          <mxGeometry relative="1" as="geometry">
            <mxPoint x="1425" y="770" as="sourcePoint" />
            <mxPoint x="1360" y="821" as="targetPoint" />
          </mxGeometry>
        </mxCell>
        <mxCell id="jdOtixr_iRrgB9LfcCDT-51" value="" style="endArrow=none;html=1;rounded=0;exitX=0;exitY=0.5;exitDx=0;exitDy=0;entryX=0.5;entryY=1;entryDx=0;entryDy=0;" edge="1" parent="1" source="jdOtixr_iRrgB9LfcCDT-42" target="jdOtixr_iRrgB9LfcCDT-15">
          <mxGeometry relative="1" as="geometry">
            <mxPoint x="1535" y="760" as="sourcePoint" />
            <mxPoint x="1470" y="811" as="targetPoint" />
          </mxGeometry>
        </mxCell>
        <mxCell id="jdOtixr_iRrgB9LfcCDT-52" value="" style="endArrow=none;html=1;rounded=0;entryX=1;entryY=0.5;entryDx=0;entryDy=0;" edge="1" parent="1" target="jdOtixr_iRrgB9LfcCDT-45">
          <mxGeometry relative="1" as="geometry">
            <mxPoint x="1440" y="580" as="sourcePoint" />
            <mxPoint x="1410" y="901" as="targetPoint" />
          </mxGeometry>
        </mxCell>
        <mxCell id="jdOtixr_iRrgB9LfcCDT-53" value="" style="endArrow=none;html=1;rounded=0;exitX=0;exitY=0.5;exitDx=0;exitDy=0;entryX=0.5;entryY=1;entryDx=0;entryDy=0;" edge="1" parent="1" source="jdOtixr_iRrgB9LfcCDT-44" target="jdOtixr_iRrgB9LfcCDT-15">
          <mxGeometry relative="1" as="geometry">
            <mxPoint x="1535" y="810" as="sourcePoint" />
            <mxPoint x="1470" y="861" as="targetPoint" />
          </mxGeometry>
        </mxCell>
        <mxCell id="jdOtixr_iRrgB9LfcCDT-54" value="1" style="text;strokeColor=none;align=center;fillColor=none;html=1;verticalAlign=middle;whiteSpace=wrap;rounded=0;" vertex="1" parent="1">
          <mxGeometry x="1830" y="530" width="60" height="30" as="geometry" />
        </mxCell>
        <mxCell id="jdOtixr_iRrgB9LfcCDT-55" value="M" style="text;strokeColor=none;align=center;fillColor=none;html=1;verticalAlign=middle;whiteSpace=wrap;rounded=0;" vertex="1" parent="1">
          <mxGeometry x="1490" y="530" width="60" height="30" as="geometry" />
        </mxCell>
        <mxCell id="jdOtixr_iRrgB9LfcCDT-56" value="1" style="text;strokeColor=none;align=center;fillColor=none;html=1;verticalAlign=middle;whiteSpace=wrap;rounded=0;" vertex="1" parent="1">
          <mxGeometry x="1330" y="530" width="60" height="30" as="geometry" />
        </mxCell>
        <mxCell id="jdOtixr_iRrgB9LfcCDT-57" value="1" style="text;strokeColor=none;align=center;fillColor=none;html=1;verticalAlign=middle;whiteSpace=wrap;rounded=0;" vertex="1" parent="1">
          <mxGeometry x="990" y="530" width="60" height="30" as="geometry" />
        </mxCell>
        <mxCell id="jdOtixr_iRrgB9LfcCDT-58" value="&lt;span style=&quot;font-size: 50px;&quot;&gt;&lt;b&gt;ERD&lt;/b&gt;&lt;/span&gt;" style="text;strokeColor=none;align=center;fillColor=none;html=1;verticalAlign=middle;whiteSpace=wrap;rounded=0;" vertex="1" parent="1">
          <mxGeometry x="1310" y="300" width="260" height="190" as="geometry" />
        </mxCell>
      </root>
    </mxGraphModel>
  </diagram>
</mxfile>
